<svg width="265" height="1440" viewBox="0 0 265 1440" fill="none" xmlns="http://www.w3.org/2000/svg">
    <path
        d="M105 1440L89 1400C73 1360 41 1280 41 1200C41 1120 73 1040 105 960C137 880 169 800 147.7 720C126 640 52 560 19.7 480C-12 400 -2.00003 320 35.7 240C73 160 137 80 169 40L201 -8.7522e-06L265 -1.15497e-05L265 40C265 80 265 160 265 240C265 320 265 400 265 480C265 560 265 640 265 720C265 800 265 880 265 960C265 1040 265 1120 265 1200C265 1280 265 1360 265 1400L265 1440L105 1440Z"
        fill="#333333" />
</svg>
    