<svg width="1441" height="266" viewBox="0 0 1441 266" fill="none" xmlns="http://www.w3.org/2000/svg">
    <g clip-path="url(#clip0_12_2)">
        <path
            d="M0.499995 105.5L40.5 89.5C80.5 73.5 160.5 41.5 240.5 41.5C320.5 41.5 400.5 73.5 480.5 105.5C560.5 137.5 640.5 169.5 720.5 148.2C800.5 126.5 880.5 52.5 960.5 20.2C1040.5 -11.5 1120.5 -1.50001 1200.5 36.2C1280.5 73.5 1360.5 137.5 1400.5 169.5L1440.5 201.5L1440.5 265.5L1400.5 265.5C1360.5 265.5 1280.5 265.5 1200.5 265.5C1120.5 265.5 1040.5 265.5 960.5 265.5C880.5 265.5 800.5 265.5 720.5 265.5C640.5 265.5 560.5 265.5 480.5 265.5C400.5 265.5 320.5 265.5 240.5 265.5C160.5 265.5 80.5 265.5 40.5 265.5L0.499988 265.5L0.499995 105.5Z"
            fill="#333333" />
    </g>
    <defs>
        <clipPath id="clip0_12_2">
            <rect width="265" height="1440" fill="white"
                transform="translate(1440.5 0.500031) rotate(90)" />
        </clipPath>
    </defs>
</svg>
    