<svg xmlns="http://www.w3.org/2000/svg" version="1.1" xmlns:xlink="http://www.w3.org/1999/xlink" xmlns:svgjs="http://svgjs.dev/svgjs" width="1440" height="560" preserveAspectRatio="none" viewBox="0 0 1440 560"><g mask="url(&quot;#SvgjsMask1068&quot;)" fill="none"><path d="M -773.7979696168927,498 C -677.8,453.6 -485.8,309.8 -293.7979696168927,276 C -101.8,242.2 -5.8,348 186.20203038310729,329 C 378.2,310 474.2,145 666.2020303831073,181 C 858.2,217 991.44,502.6 1146.2020303831073,509 C 1300.96,515.4 1381.24,272.2 1440,213" stroke="rgba(71, 71, 71, 1)" stroke-width="2"></path><path d="M -753.8679389832596,130 C -657.87,169.8 -465.87,323 -273.86793898325953,329 C -81.87,335 14.13,122.2 206.13206101674047,160 C 398.13,197.8 494.13,539.2 686.1320610167404,518 C 878.13,496.8 1015.36,49.6 1166.1320610167404,54 C 1316.91,58.4 1385.23,442.8 1440,540" stroke="rgba(71, 71, 71, 1)" stroke-width="2"></path><path d="M -436.8446877703397,14 C -340.84,103.6 -148.84,422.6 43.1553122296603,462 C 235.16,501.4 331.16,236.4 523.1553122296602,211 C 715.16,185.6 811.16,352.8 1003.1553122296602,335 C 1195.16,317.2 1395.79,79.8 1483.1553122296602,122 C 1570.52,164.2 1448.63,461.2 1440,546" stroke="rgba(71, 71, 71, 1)" stroke-width="2"></path><path d="M -444.35195895858385,537 C -348.35,455.6 -156.35,132.4 35.64804104141615,130 C 227.65,127.6 323.65,540.4 515.6480410414161,525 C 707.65,509.6 803.65,92.4 995.6480410414161,53 C 1187.65,13.6 1386.78,320.2 1475.648041041416,328 C 1564.52,335.8 1447.13,139.2 1440,92" stroke="rgba(71, 71, 71, 1)" stroke-width="2"></path><path d="M -216.6732669498839,123 C -120.67,174 71.33,371 263.3267330501161,378 C 455.33,385 551.33,125.8 743.3267330501161,158 C 935.33,190.2 1031.33,541.8 1223.3267330501162,539 C 1415.33,536.2 1659.99,158 1703.3267330501162,144 C 1746.66,130 1492.67,404 1440,469" stroke="rgba(71, 71, 71, 1)" stroke-width="2"></path><path d="M -295.0841717048795,83 C -199.08,157 -7.08,468.6 184.9158282951205,453 C 376.92,437.4 472.92,19 664.9158282951205,5 C 856.92,-9 952.92,364.4 1144.9158282951205,383 C 1336.92,401.6 1565.9,75.2 1624.9158282951205,98 C 1683.93,120.8 1476.98,417.2 1440,497" stroke="rgba(71, 71, 71, 1)" stroke-width="2"></path><path d="M -316.7964648990435,48 C -220.8,135.2 -28.8,478.2 163.20353510095654,484 C 355.2,489.8 451.2,67.8 643.2035351009565,77 C 835.2,86.2 931.2,534.4 1123.2035351009565,530 C 1315.2,525.6 1539.84,63.8 1603.2035351009565,55 C 1666.56,46.2 1472.64,399.8 1440,486" stroke="rgba(71, 71, 71, 1)" stroke-width="2"></path></g><defs><mask id="SvgjsMask1068"><rect width="1440" height="560" fill="#ffffff"></rect></mask></defs></svg>